<mxfile host="app.diagrams.net" agent="Mozilla/5.0 (X11; Ubuntu; Linux x86_64; rv:133.0) Gecko/20100101 Firefox/133.0" version="25.0.3">
  <diagram name="Page-1" id="HagMstq3PX3BnSXlZmDE">
    <mxGraphModel dx="989" dy="528" grid="1" gridSize="10" guides="1" tooltips="1" connect="1" arrows="1" fold="1" page="1" pageScale="1" pageWidth="850" pageHeight="1100" math="0" shadow="0">
      <root>
        <mxCell id="0" />
        <mxCell id="1" parent="0" />
        <mxCell id="DuClSAoSs_SUKnMaZFBM-1" value="N-point&lt;br&gt;BRAM" style="rounded=0;whiteSpace=wrap;html=1;fontFamily=NewsGotT;" vertex="1" parent="1">
          <mxGeometry x="160" y="120" width="110" height="160" as="geometry" />
        </mxCell>
        <mxCell id="DuClSAoSs_SUKnMaZFBM-2" value="" style="triangle;whiteSpace=wrap;html=1;fontFamily=NewsGotT;movable=1;resizable=1;rotatable=1;deletable=1;editable=1;locked=0;connectable=1;container=0;" vertex="1" parent="1">
          <mxGeometry x="160" y="140" width="7.5" height="10" as="geometry" />
        </mxCell>
        <mxCell id="DuClSAoSs_SUKnMaZFBM-3" value="rst" style="text;html=1;align=center;verticalAlign=middle;resizable=0;points=[];autosize=1;strokeColor=none;fillColor=none;spacing=-5;" vertex="1" parent="1">
          <mxGeometry x="160" y="160" width="20" height="10" as="geometry" />
        </mxCell>
        <mxCell id="DuClSAoSs_SUKnMaZFBM-4" value="d" style="text;html=1;align=center;verticalAlign=middle;resizable=0;points=[];autosize=1;strokeColor=none;fillColor=none;" vertex="1" parent="1">
          <mxGeometry x="355" y="338" width="30" height="30" as="geometry" />
        </mxCell>
      </root>
    </mxGraphModel>
  </diagram>
</mxfile>
